HIERARCHY
ROOT Spine
{
    OFFSET 0.0 0.0 -0.0
    CHANNELS 6 Xposition Yposition Zposition Zrotation Xrotation Yrotation
    JOINT ShoulderCenter
    {
        OFFSET 0.0 20.232778549194336 0.0
        CHANNELS 3 Zrotation Xrotation Yrotation
        JOINT LeftShoulder
        {
            OFFSET 14.722428321838379 0.0 0.0
            CHANNELS 3 Zrotation Xrotation Yrotation
            JOINT LeftElbow
            {
                OFFSET 21.5341739654541 0.0 0.0
                CHANNELS 3 Zrotation Xrotation Yrotation
                JOINT LeftHand
                {
                    OFFSET 23.34282684326172 0.0 0.0
                    CHANNELS 3 Zrotation Xrotation Yrotation
                    End Site
                    {
                        OFFSET 9.33713150024414 0.0 0.0
                    }
                }
            }
        }
        JOINT RightShoulder
        {
            OFFSET -14.722428321838379 0.0 0.0
            CHANNELS 3 Zrotation Xrotation Yrotation
            JOINT RightElbow
            {
                OFFSET -21.5341739654541 0.0 0.0
                CHANNELS 3 Zrotation Xrotation Yrotation
                JOINT RightHand
                {
                    OFFSET -23.34282684326172 0.0 0.0
                    CHANNELS 3 Zrotation Xrotation Yrotation
                    End Site
                    {
                        OFFSET -9.33713150024414 0.0 0.0
                    }
                }
            }
        }
        End Site
        {
            OFFSET 0.0 8.093111991882324 0.0
        }
    }
    JOINT LeftHip
    {
        OFFSET 18.79766437195193 -18.79766437195193 0.0
        CHANNELS 3 Zrotation Xrotation Yrotation
        JOINT LeftKnee
        {
            OFFSET 0.0 -35.68790817260742 0.0
            CHANNELS 3 Zrotation Xrotation Yrotation
            JOINT LeftFoot
            {
                OFFSET 0.0 -39.69482421875 0.0
                CHANNELS 3 Zrotation Xrotation Yrotation
                End Site
                {
                    OFFSET 0.0 0.0 15.8779296875
                }
            }
        }
    }
    JOINT RightHip
    {
        OFFSET -18.79766437195193 -18.79766437195193 0.0
        CHANNELS 3 Zrotation Xrotation Yrotation
        JOINT RightKnee
        {
            OFFSET 0.0 -35.68790817260742 0.0
            CHANNELS 3 Zrotation Xrotation Yrotation
            JOINT RightFoot
            {
                OFFSET 0.0 -39.69482421875 0.0
                CHANNELS 3 Zrotation Xrotation Yrotation
                End Site
                {
                    OFFSET 0.0 0.0 15.8779296875
                }
            }
        }
    }
}
MOTION
Frames: 12
Frame Time: 0.03333333333333333
2.6774160861968994 -42.45895004272461 -293.0203857421875 2.2324525423541157 20.54168191038344 -7.740521201450094 -1.5344444260754973e-07 3.7517952441831254e-07 177.05080871949772 -137.76554052947432 68.39390063248399 50.68159192086501 -2.918738583373081e-06 -1.5443926808381543e-06 32.294537519409836 3.1805546814635164e-15 -6.3611093629270335e-15 -6.3611093629270335e-15 142.68023148316925 73.17454502161465 -54.78896105167261 -3.381713906543728e-06 -2.4022362671113675e-06 -57.53971701592967 -1.590277340731758e-15 6.361109362927032e-15 8.827812596100317e-32 169.9369419389054 -67.94484174993114 -115.96345814040981 97.80225800780387 25.410411278760375 -79.77408251967917 0.0 0.0 2.1866313435061676e-15 -147.41315902992048 -65.28040518329452 135.9729698210173 -77.4580572343782 22.9104386877156 43.58963135272556 1.5902773407317584e-15 -7.951386703658792e-16 -4.075085685625131e-15
2.7447500228881836 -42.422847747802734 -293.06341552734375 2.0646671765506523 20.40783911680098 -7.5872300279691745 -3.855420541200176e-08 1.1553202774055555e-06 177.3830178131869 -139.03698176195277 67.85638953951658 50.074418177116804 -7.635282204698544e-06 -2.1067685861251517e-06 35.664288740054864 3.1805546814635168e-15 -6.3611093629270335e-15 3.1805546814635168e-15 121.48885838453144 65.00352756222011 -34.80762507045506 -2.496288888867496e-06 1.2511170377549194e-06 -36.03041399673412 1.5902773407317584e-15 4.4139062980501586e-32 3.1805546814635168e-15 169.23496396811416 -68.07181124403986 -116.66219524760305 98.02052351894575 25.497793576050828 -80.74079665526503 -1.5902773407317588e-15 1.5902773407317588e-15 -2.981770013872048e-16 -147.4943570731131 -65.43835956675629 135.85310034963678 -77.47939093788884 22.76366052774853 43.49457640384421 1.5902773407317584e-15 -1.5902773407317584e-15 -4.87022435599101e-15
2.7913010120391846 -42.40312957763672 -293.09429931640625 2.004960149129574 20.353270161626842 -7.303066724834244 3.0434876136753683e-09 -1.8639931609568461e-06 177.77991308114272 -143.91685670505288 69.24205400894954 54.37276767421037 1.236226184154652e-06 -9.881768488945557e-07 36.15537315360901 0.0 -6.3611093629270335e-15 0.0 122.77741861145684 65.5936106205261 -35.93685715369077 -1.693003405867964e-06 5.005167590619049e-06 -35.966596657143604 1.5902773407317584e-15 6.3611093629270335e-15 -8.827812596100317e-32 168.7122297115423 -68.08821714871848 -117.14557239747879 98.1331398949592 25.50337068904435 -81.21706214167868 -6.034637516865451e-34 -9.93923337957349e-17 -6.957463365701443e-16 -148.34351742499106 -65.68685603433366 135.04382585484203 -77.27626827158339 22.042233169623707 42.23594612183404 -5.931186588004901e-32 -7.951386703658794e-16 -8.547740706433203e-15
2.8660600185394287 -42.41651153564453 -293.1448059082031 1.8002574993258604 20.250213358742386 -7.0179887607569755 1.3733302569611138e-07 3.1671913094630453e-07 177.77867970533887 -147.4544890471516 69.57691898778872 57.32813017170643 -1.4065716285971682e-06 2.5151244525600464e-06 35.697458520238314 0.0 0.0 -3.1805546814635168e-15 131.7459012865208 69.54235717139129 -44.230159311889494 1.3334342560233755e-07 3.977769098397615e-06 -45.071057619635376 7.951386703658792e-15 -2.2069531490250793e-31 -3.1805546814635168e-15 168.67265994331513 -68.24786063143165 -117.19972676026566 98.89916245364313 24.69743735379146 -83.05964834671309 0.0 0.0 1.987846675914698e-16 -147.98999733898495 -65.72863658535314 135.36215262604688 -77.15123832798965 22.15736003564193 42.33649706773479 -1.5902773407317582e-15 6.620859447075238e-32 -4.770832022195274e-15
2.903346061706543 -42.45429229736328 -293.1954040527344 1.8352521978424705 20.241338376200485 -6.577676642779549 -4.635742315422344e-09 -2.614586895369815e-07 178.28884352393425 -139.03814875549094 67.85896964154051 49.84850004692211 -1.2991396681788464e-06 1.0432390634036728e-06 33.55297538962008 0.0 0.0 3.1805546814635168e-15 136.53090393310103 70.94934264645647 -48.51385202905679 2.684112065237977e-06 1.0525082246310004e-06 -51.93859297795073 0.0 0.0 0.0 169.18745973872845 -68.2252484559118 -116.59999338989391 98.93048022776779 24.752857355558252 -82.9103434994297 0.0 0.0 1.1927080055488188e-15 -148.37053216465475 -65.55794025217754 135.1068757534756 -77.12855489615174 21.813973030286366 41.62960547981745 -1.5902773407317584e-15 7.951386703658792e-16 2.4848083448933726e-15
2.9415671825408936 -42.45711135864258 -293.2581787109375 1.742541493712474 20.077180811891388 -6.087019016099335 4.7842917162597924e-08 -9.505607550517771e-07 178.43932335660847 -139.47473174130505 68.47077155881756 50.35552118195098 -3.0992393526729003e-06 1.3236032569180671e-06 33.64200369030126 -1.7655625192200634e-31 -6.3611093629270335e-15 -3.1805546814635168e-15 121.56449078811653 67.55122923625183 -35.031597104749714 3.35883065142706e-06 4.240612249601896e-06 -46.16647842068738 1.5902773407317584e-15 6.3611093629270335e-15 -3.1805546814635168e-15 169.44141969321296 -68.40515796916608 -116.27395894657732 98.9872625073575 24.861611613816066 -83.14625061413004 0.0 0.0 -8.94531004161614e-16 -147.97598436604932 -65.56064547538071 135.55516622315676 -77.30889740337284 21.579504380392592 41.677455425813605 0.0 0.0 2.6835930124848418e-15
2.9621779918670654 -42.469539642333984 -293.29449462890625 1.7119957815564912 19.979815538303605 -5.76781053360101 1.079575127692404e-08 2.3632318334800918e-06 178.33138242858334 -134.24573187319052 66.95533144842773 45.47300662186358 3.4488081005988752e-06 2.555328364810321e-06 33.5580098488806 3.1805546814635168e-15 -6.3611093629270335e-15 -3.1805546814635168e-15 132.00392814274971 70.54619919943515 -44.383232903687514 -1.5609788661705435e-06 1.7697266893363647e-06 -51.37454334576677 -4.770832022195274e-15 0.0 0.0 169.1496907986995 -68.4373247647224 -116.50417073665044 99.09562649488865 25.2580254513633 -83.63861288520829 0.0 0.0 1.9878466759146975e-16 -147.7757674782314 -65.61654861511501 135.7726136935341 -77.35080285275511 21.321072154143497 41.55552865970152 -5.862219302097867e-32 7.951386703658791e-16 8.448348372637465e-15
2.9734549522399902 -42.45079040527344 -293.3459167480469 1.705873780833596 19.657601316402218 -5.605670268881378 5.810359262492454e-08 -1.1903221230328113e-06 178.1616195356341 -136.1838051236171 67.15497433213157 47.35492125939188 -4.513283974988484e-08 -1.5876987379645135e-06 33.162484590230505 -6.3611093629270335e-15 1.7655625192200634e-31 -3.1805546814635168e-15 131.07540513602322 70.0321141491263 -43.29823627183277 -4.1574609670668326e-06 1.0837248833834707e-06 -52.45880361541731 -4.770832022195275e-15 1.3241718894150476e-31 -3.1805546814635168e-15 168.8394221776233 -68.71058655019003 -116.74430911116912 99.17531222656747 25.386602877489203 -84.14870248585004 -5.172546443027529e-33 1.4908850069360234e-15 3.9756933518293955e-16 -147.68531336506643 -65.91431982901332 135.9115040438235 -77.36322153340008 21.110298588236912 41.442375785255365 1.517280289954742e-32 -7.951386703658792e-16 2.1866313435061676e-15
2.972177028656006 -42.48544692993164 -293.4461975097656 1.8263210901957787 19.33306016090016 -5.476531225514889 2.3096838544338212e-08 1.8218084960947963e-06 178.3063856546767 -149.64478182719373 70.33364706288343 60.09654490145198 1.9121553801063005e-06 -4.058268277428595e-06 35.29978449485507 3.1805546814635168e-15 -6.3611093629270335e-15 3.1805546814635168e-15 133.4904392590396 69.95670680050496 -45.63269090467673 -7.514311919119274e-07 -1.805237375344576e-06 -49.97539453394401 1.5902773407317588e-15 -6.3611093629270335e-15 6.3611093629270335e-15 168.84106884115053 -68.90482699872683 -116.61979214571102 99.3835037185851 25.465125095639294 -84.79989332721648 0.0 0.0 -1.689669674527493e-15 -147.3688511314585 -66.0643080143315 136.3378946287844 -77.40169200161894 21.09007595498545 41.685623797828605 0.0 0.0 9.243487043003347e-15
2.92685604095459 -42.607479095458984 -293.6304931640625 2.1117146620149723 18.79500349978139 -5.251403750700167 -1.4019670130553166e-07 1.2924327826918008e-06 178.5279533896801 -159.98487887536726 72.04684318802958 70.25290696411723 -4.03615093691686e-06 7.253867793885977e-06 40.107234546879 3.1805546814635176e-15 -8.827812596100317e-32 -3.1805546814635176e-15 137.5459486932292 70.03593243233078 -49.120976940198915 -2.3105251338423117e-06 3.268160500128768e-06 -49.49589401456168 1.5902773407317584e-15 8.827812596100317e-32 6.3611093629270335e-15 169.05275061994953 -69.0769254329698 -116.20931349494286 99.69862207875252 25.571898478344444 -85.4910995853076 -1.5902773407317582e-15 1.689669674527493e-15 9.939233379573488e-16 -146.77843330011157 -66.22297970290077 137.12994430211484 -77.74733513480527 20.95149375356835 42.370749056009295 0.0 0.0 -5.963540027744094e-16
2.9242160320281982 -42.65003967285156 -293.7522888183594 2.1611108781889805 18.423733606511455 -5.012583746933033 3.506370506972211e-08 -5.924864668559612e-07 178.81651458057857 -161.9219562210917 72.25248440958723 72.23062383422695 7.243459685156487e-07 4.032348412624992e-06 40.80680264237821 -3.1805546814635168e-15 0.0 0.0 137.83067575437963 69.14532377178486 -49.462908019413916 -2.2450155776409496e-06 -8.381668933107285e-07 -47.914154968489036 -6.3611093629270335e-15 -6.3611093629270335e-15 3.1805546814635164e-15 169.7205033060368 -68.2315117632618 -115.573026566976 101.53618061408636 25.535020909792948 -87.61794894767147 -6.896728590703373e-33 -1.5902773407317584e-15 -4.969616689786745e-16 -146.59569530482102 -66.25999955892381 137.36639673875092 -78.04184818129319 20.841818220641976 42.74428864197013 3.034560579909484e-32 1.5902773407317582e-15 -2.1866313435061676e-15
2.8151841163635254 -42.75571060180664 -294.00848388671875 2.7257076863262326 17.61387059431617 -4.9375228588144 -1.7400431894011932e-07 9.664194459729288e-07 179.11431116886368 -156.81233417603124 72.3834070281427 67.37486896738123 -2.4472248886784477e-06 1.9003118097683167e-07 40.70367861525446 -3.1805546814635164e-15 8.827812596100317e-32 -3.1805546814635164e-15 140.7605932168164 69.07432631577689 -51.33640285660578 9.682791541726135e-07 9.91946588684027e-07 -47.54185713704778 1.7655625192200634e-31 -6.3611093629270335e-15 3.1805546814635168e-15 170.68411165699993 -67.82542042143093 -114.35487169603094 104.26344204514953 25.365837042250533 -92.14228098446766 0.0 0.0 0.0 -146.33784154371276 -66.67449398760921 137.9429132214182 -78.386163333227 20.357758918248383 43.02250704665952 1.5902773407317584e-15 1.2689980606894205e-31 9.14409470920761e-15
